<mxfile host="app.diagrams.net" agent="Mozilla/5.0 (Windows NT 10.0; Win64; x64; rv:136.0) Gecko/20100101 Firefox/136.0" version="26.1.0">
  <diagram name="PÃ¡gina-1" id="3ox3w0ggHLgNSNyq2sZh">
    <mxGraphModel dx="1050" dy="557" grid="0" gridSize="10" guides="1" tooltips="1" connect="1" arrows="1" fold="1" page="1" pageScale="1" pageWidth="827" pageHeight="1169" background="#ffffff" math="0" shadow="0">
      <root>
        <mxCell id="0" />
        <mxCell id="1" parent="0" />
        <mxCell id="2" value="Gestor" style="swimlane;fontStyle=1;align=center;verticalAlign=top;childLayout=stackLayout;horizontal=1;startSize=32;horizontalStack=0;resizeParent=1;resizeParentMax=0;resizeLast=0;collapsible=0;marginBottom=0;fillColor=#21C0A5;strokeColor=#006658;labelBackgroundColor=none;fontColor=#5C5C5C;sketch=1;curveFitting=1;jiggle=2;rounded=0;" parent="1" vertex="1">
          <mxGeometry x="8" y="8" width="208" height="488" as="geometry" />
        </mxCell>
        <mxCell id="3" value="+ id: int" style="text;strokeColor=none;fillColor=none;align=left;verticalAlign=top;spacingLeft=4;spacingRight=4;overflow=hidden;rotatable=0;points=[[0,0.5],[1,0.5]];portConstraint=eastwest;labelBackgroundColor=none;fontColor=#5C5C5C;sketch=1;curveFitting=1;jiggle=2;rounded=0;" parent="2" vertex="1">
          <mxGeometry y="32" width="208" height="32" as="geometry" />
        </mxCell>
        <mxCell id="4" value="+ nome: string" style="text;strokeColor=none;fillColor=none;align=left;verticalAlign=top;spacingLeft=4;spacingRight=4;overflow=hidden;rotatable=0;points=[[0,0.5],[1,0.5]];portConstraint=eastwest;labelBackgroundColor=none;fontColor=#5C5C5C;sketch=1;curveFitting=1;jiggle=2;rounded=0;" parent="2" vertex="1">
          <mxGeometry y="64" width="208" height="32" as="geometry" />
        </mxCell>
        <mxCell id="5" value="+ email: string" style="text;strokeColor=none;fillColor=none;align=left;verticalAlign=top;spacingLeft=4;spacingRight=4;overflow=hidden;rotatable=0;points=[[0,0.5],[1,0.5]];portConstraint=eastwest;labelBackgroundColor=none;fontColor=#5C5C5C;sketch=1;curveFitting=1;jiggle=2;rounded=0;" parent="2" vertex="1">
          <mxGeometry y="96" width="208" height="32" as="geometry" />
        </mxCell>
        <mxCell id="6" value="+ senha: string" style="text;strokeColor=none;fillColor=none;align=left;verticalAlign=top;spacingLeft=4;spacingRight=4;overflow=hidden;rotatable=0;points=[[0,0.5],[1,0.5]];portConstraint=eastwest;labelBackgroundColor=none;fontColor=#5C5C5C;sketch=1;curveFitting=1;jiggle=2;rounded=0;" parent="2" vertex="1">
          <mxGeometry y="128" width="208" height="32" as="geometry" />
        </mxCell>
        <mxCell id="8" style="line;strokeWidth=1;fillColor=none;align=left;verticalAlign=middle;spacingTop=-1;spacingLeft=3;spacingRight=3;rotatable=0;labelPosition=right;points=[];portConstraint=eastwest;strokeColor=#006658;labelBackgroundColor=none;fontColor=#5C5C5C;sketch=1;curveFitting=1;jiggle=2;rounded=0;" parent="2" vertex="1">
          <mxGeometry y="160" width="208" height="8" as="geometry" />
        </mxCell>
        <mxCell id="9" value="+ cadastrarMotorista()" style="text;strokeColor=none;fillColor=none;align=left;verticalAlign=top;spacingLeft=4;spacingRight=4;overflow=hidden;rotatable=0;points=[[0,0.5],[1,0.5]];portConstraint=eastwest;labelBackgroundColor=none;fontColor=#5C5C5C;sketch=1;curveFitting=1;jiggle=2;rounded=0;" parent="2" vertex="1">
          <mxGeometry y="168" width="208" height="32" as="geometry" />
        </mxCell>
        <mxCell id="10" value="+ editarMotorista()" style="text;strokeColor=none;fillColor=none;align=left;verticalAlign=top;spacingLeft=4;spacingRight=4;overflow=hidden;rotatable=0;points=[[0,0.5],[1,0.5]];portConstraint=eastwest;labelBackgroundColor=none;fontColor=#5C5C5C;sketch=1;curveFitting=1;jiggle=2;rounded=0;" parent="2" vertex="1">
          <mxGeometry y="200" width="208" height="32" as="geometry" />
        </mxCell>
        <mxCell id="iK1w5hHDq547_emKRhoM-10" value="+ visualizarMotorista()" style="text;strokeColor=none;fillColor=none;align=left;verticalAlign=top;spacingLeft=4;spacingRight=4;overflow=hidden;rotatable=0;points=[[0,0.5],[1,0.5]];portConstraint=eastwest;labelBackgroundColor=none;fontColor=#5C5C5C;sketch=1;curveFitting=1;jiggle=2;rounded=0;" parent="2" vertex="1">
          <mxGeometry y="232" width="208" height="32" as="geometry" />
        </mxCell>
        <mxCell id="iK1w5hHDq547_emKRhoM-11" value="+ deletarMotorista()" style="text;strokeColor=none;fillColor=none;align=left;verticalAlign=top;spacingLeft=4;spacingRight=4;overflow=hidden;rotatable=0;points=[[0,0.5],[1,0.5]];portConstraint=eastwest;labelBackgroundColor=none;fontColor=#5C5C5C;sketch=1;curveFitting=1;jiggle=2;rounded=0;" parent="2" vertex="1">
          <mxGeometry y="264" width="208" height="32" as="geometry" />
        </mxCell>
        <mxCell id="iK1w5hHDq547_emKRhoM-12" value="+ cadastrarCarro()" style="text;strokeColor=none;fillColor=none;align=left;verticalAlign=top;spacingLeft=4;spacingRight=4;overflow=hidden;rotatable=0;points=[[0,0.5],[1,0.5]];portConstraint=eastwest;labelBackgroundColor=none;fontColor=#5C5C5C;sketch=1;curveFitting=1;jiggle=2;rounded=0;" parent="2" vertex="1">
          <mxGeometry y="296" width="208" height="32" as="geometry" />
        </mxCell>
        <mxCell id="iK1w5hHDq547_emKRhoM-13" value="+ editarCarro()" style="text;strokeColor=none;fillColor=none;align=left;verticalAlign=top;spacingLeft=4;spacingRight=4;overflow=hidden;rotatable=0;points=[[0,0.5],[1,0.5]];portConstraint=eastwest;labelBackgroundColor=none;fontColor=#5C5C5C;sketch=1;curveFitting=1;jiggle=2;rounded=0;" parent="2" vertex="1">
          <mxGeometry y="328" width="208" height="32" as="geometry" />
        </mxCell>
        <mxCell id="iK1w5hHDq547_emKRhoM-14" value="+ visualizarCarro()" style="text;strokeColor=none;fillColor=none;align=left;verticalAlign=top;spacingLeft=4;spacingRight=4;overflow=hidden;rotatable=0;points=[[0,0.5],[1,0.5]];portConstraint=eastwest;labelBackgroundColor=none;fontColor=#5C5C5C;sketch=1;curveFitting=1;jiggle=2;rounded=0;" parent="2" vertex="1">
          <mxGeometry y="360" width="208" height="32" as="geometry" />
        </mxCell>
        <mxCell id="iK1w5hHDq547_emKRhoM-15" value="+ deletarCarro()" style="text;strokeColor=none;fillColor=none;align=left;verticalAlign=top;spacingLeft=4;spacingRight=4;overflow=hidden;rotatable=0;points=[[0,0.5],[1,0.5]];portConstraint=eastwest;labelBackgroundColor=none;fontColor=#5C5C5C;sketch=1;curveFitting=1;jiggle=2;rounded=0;" parent="2" vertex="1">
          <mxGeometry y="392" width="208" height="32" as="geometry" />
        </mxCell>
        <mxCell id="iK1w5hHDq547_emKRhoM-16" value="+ cadastrarEvento()" style="text;strokeColor=none;fillColor=none;align=left;verticalAlign=top;spacingLeft=4;spacingRight=4;overflow=hidden;rotatable=0;points=[[0,0.5],[1,0.5]];portConstraint=eastwest;labelBackgroundColor=none;fontColor=#5C5C5C;sketch=1;curveFitting=1;jiggle=2;rounded=0;" parent="2" vertex="1">
          <mxGeometry y="424" width="208" height="32" as="geometry" />
        </mxCell>
        <mxCell id="iK1w5hHDq547_emKRhoM-17" value="+ visualizarEvento()" style="text;strokeColor=none;fillColor=none;align=left;verticalAlign=top;spacingLeft=4;spacingRight=4;overflow=hidden;rotatable=0;points=[[0,0.5],[1,0.5]];portConstraint=eastwest;labelBackgroundColor=none;fontColor=#5C5C5C;sketch=1;curveFitting=1;jiggle=2;rounded=0;" parent="2" vertex="1">
          <mxGeometry y="456" width="208" height="32" as="geometry" />
        </mxCell>
        <mxCell id="iK1w5hHDq547_emKRhoM-18" value="Motorista" style="swimlane;fontStyle=1;align=center;verticalAlign=top;childLayout=stackLayout;horizontal=1;startSize=32;horizontalStack=0;resizeParent=1;resizeParentMax=0;resizeLast=0;collapsible=0;marginBottom=0;fillColor=#21C0A5;strokeColor=#006658;labelBackgroundColor=none;fontColor=#5C5C5C;sketch=1;curveFitting=1;jiggle=2;rounded=0;" parent="1" vertex="1">
          <mxGeometry x="310" y="8" width="208" height="168" as="geometry" />
        </mxCell>
        <mxCell id="iK1w5hHDq547_emKRhoM-19" value="+ id: int" style="text;strokeColor=none;fillColor=none;align=left;verticalAlign=top;spacingLeft=4;spacingRight=4;overflow=hidden;rotatable=0;points=[[0,0.5],[1,0.5]];portConstraint=eastwest;labelBackgroundColor=none;fontColor=#5C5C5C;sketch=1;curveFitting=1;jiggle=2;rounded=0;" parent="iK1w5hHDq547_emKRhoM-18" vertex="1">
          <mxGeometry y="32" width="208" height="32" as="geometry" />
        </mxCell>
        <mxCell id="iK1w5hHDq547_emKRhoM-20" value="+ nome: string" style="text;strokeColor=none;fillColor=none;align=left;verticalAlign=top;spacingLeft=4;spacingRight=4;overflow=hidden;rotatable=0;points=[[0,0.5],[1,0.5]];portConstraint=eastwest;labelBackgroundColor=none;fontColor=#5C5C5C;sketch=1;curveFitting=1;jiggle=2;rounded=0;" parent="iK1w5hHDq547_emKRhoM-18" vertex="1">
          <mxGeometry y="64" width="208" height="32" as="geometry" />
        </mxCell>
        <mxCell id="iK1w5hHDq547_emKRhoM-21" value="+ telefone: string" style="text;strokeColor=none;fillColor=none;align=left;verticalAlign=top;spacingLeft=4;spacingRight=4;overflow=hidden;rotatable=0;points=[[0,0.5],[1,0.5]];portConstraint=eastwest;labelBackgroundColor=none;fontColor=#5C5C5C;sketch=1;curveFitting=1;jiggle=2;rounded=0;" parent="iK1w5hHDq547_emKRhoM-18" vertex="1">
          <mxGeometry y="96" width="208" height="32" as="geometry" />
        </mxCell>
        <mxCell id="iK1w5hHDq547_emKRhoM-23" style="line;strokeWidth=1;fillColor=none;align=left;verticalAlign=middle;spacingTop=-1;spacingLeft=3;spacingRight=3;rotatable=0;labelPosition=right;points=[];portConstraint=eastwest;strokeColor=#006658;labelBackgroundColor=none;fontColor=#5C5C5C;sketch=1;curveFitting=1;jiggle=2;rounded=0;" parent="iK1w5hHDq547_emKRhoM-18" vertex="1">
          <mxGeometry y="128" width="208" height="8" as="geometry" />
        </mxCell>
        <mxCell id="iK1w5hHDq547_emKRhoM-24" value="+ solicitarCarro()" style="text;strokeColor=none;fillColor=none;align=left;verticalAlign=top;spacingLeft=4;spacingRight=4;overflow=hidden;rotatable=0;points=[[0,0.5],[1,0.5]];portConstraint=eastwest;labelBackgroundColor=none;fontColor=#5C5C5C;sketch=1;curveFitting=1;jiggle=2;rounded=0;" parent="iK1w5hHDq547_emKRhoM-18" vertex="1">
          <mxGeometry y="136" width="208" height="32" as="geometry" />
        </mxCell>
        <mxCell id="iK1w5hHDq547_emKRhoM-34" value="Carro" style="swimlane;fontStyle=1;align=center;verticalAlign=top;childLayout=stackLayout;horizontal=1;startSize=32;horizontalStack=0;resizeParent=1;resizeParentMax=0;resizeLast=0;collapsible=0;marginBottom=0;fillColor=#21C0A5;strokeColor=#006658;labelBackgroundColor=none;fontColor=#5C5C5C;sketch=1;curveFitting=1;jiggle=2;rounded=0;" parent="1" vertex="1">
          <mxGeometry x="610" y="8" width="208" height="232" as="geometry" />
        </mxCell>
        <mxCell id="iK1w5hHDq547_emKRhoM-35" value="+ id: int" style="text;strokeColor=none;fillColor=none;align=left;verticalAlign=top;spacingLeft=4;spacingRight=4;overflow=hidden;rotatable=0;points=[[0,0.5],[1,0.5]];portConstraint=eastwest;labelBackgroundColor=none;fontColor=#5C5C5C;sketch=1;curveFitting=1;jiggle=2;rounded=0;" parent="iK1w5hHDq547_emKRhoM-34" vertex="1">
          <mxGeometry y="32" width="208" height="32" as="geometry" />
        </mxCell>
        <mxCell id="iK1w5hHDq547_emKRhoM-36" value="+ modelo: string" style="text;strokeColor=none;fillColor=none;align=left;verticalAlign=top;spacingLeft=4;spacingRight=4;overflow=hidden;rotatable=0;points=[[0,0.5],[1,0.5]];portConstraint=eastwest;labelBackgroundColor=none;fontColor=#5C5C5C;sketch=1;curveFitting=1;jiggle=2;rounded=0;" parent="iK1w5hHDq547_emKRhoM-34" vertex="1">
          <mxGeometry y="64" width="208" height="32" as="geometry" />
        </mxCell>
        <mxCell id="iK1w5hHDq547_emKRhoM-37" value="+ placa: string" style="text;strokeColor=none;fillColor=none;align=left;verticalAlign=top;spacingLeft=4;spacingRight=4;overflow=hidden;rotatable=0;points=[[0,0.5],[1,0.5]];portConstraint=eastwest;labelBackgroundColor=none;fontColor=#5C5C5C;sketch=1;curveFitting=1;jiggle=2;rounded=0;" parent="iK1w5hHDq547_emKRhoM-34" vertex="1">
          <mxGeometry y="96" width="208" height="32" as="geometry" />
        </mxCell>
        <mxCell id="iK1w5hHDq547_emKRhoM-38" value="+ odometro: int" style="text;strokeColor=none;fillColor=none;align=left;verticalAlign=top;spacingLeft=4;spacingRight=4;overflow=hidden;rotatable=0;points=[[0,0.5],[1,0.5]];portConstraint=eastwest;labelBackgroundColor=none;fontColor=#5C5C5C;sketch=1;curveFitting=1;jiggle=2;rounded=0;" parent="iK1w5hHDq547_emKRhoM-34" vertex="1">
          <mxGeometry y="128" width="208" height="32" as="geometry" />
        </mxCell>
        <mxCell id="iK1w5hHDq547_emKRhoM-85" value="+ status: string" style="text;strokeColor=none;fillColor=none;align=left;verticalAlign=top;spacingLeft=4;spacingRight=4;overflow=hidden;rotatable=0;points=[[0,0.5],[1,0.5]];portConstraint=eastwest;labelBackgroundColor=none;fontColor=#5C5C5C;sketch=1;curveFitting=1;jiggle=2;rounded=0;" parent="iK1w5hHDq547_emKRhoM-34" vertex="1">
          <mxGeometry y="160" width="208" height="32" as="geometry" />
        </mxCell>
        <mxCell id="iK1w5hHDq547_emKRhoM-39" style="line;strokeWidth=1;fillColor=none;align=left;verticalAlign=middle;spacingTop=-1;spacingLeft=3;spacingRight=3;rotatable=0;labelPosition=right;points=[];portConstraint=eastwest;strokeColor=#006658;labelBackgroundColor=none;fontColor=#5C5C5C;sketch=1;curveFitting=1;jiggle=2;rounded=0;" parent="iK1w5hHDq547_emKRhoM-34" vertex="1">
          <mxGeometry y="192" width="208" height="8" as="geometry" />
        </mxCell>
        <mxCell id="iK1w5hHDq547_emKRhoM-40" value="+ atualizarStatus()" style="text;strokeColor=none;fillColor=none;align=left;verticalAlign=top;spacingLeft=4;spacingRight=4;overflow=hidden;rotatable=0;points=[[0,0.5],[1,0.5]];portConstraint=eastwest;labelBackgroundColor=none;fontColor=#5C5C5C;sketch=1;curveFitting=1;jiggle=2;rounded=0;" parent="iK1w5hHDq547_emKRhoM-34" vertex="1">
          <mxGeometry y="200" width="208" height="32" as="geometry" />
        </mxCell>
        <mxCell id="iK1w5hHDq547_emKRhoM-50" value="Evento" style="swimlane;fontStyle=1;align=center;verticalAlign=top;childLayout=stackLayout;horizontal=1;startSize=32;horizontalStack=0;resizeParent=1;resizeParentMax=0;resizeLast=0;collapsible=0;marginBottom=0;fillColor=#21C0A5;strokeColor=#006658;labelBackgroundColor=none;fontColor=#5C5C5C;sketch=1;curveFitting=1;jiggle=2;rounded=0;" parent="1" vertex="1">
          <mxGeometry x="310" y="220" width="208" height="296" as="geometry" />
        </mxCell>
        <mxCell id="iK1w5hHDq547_emKRhoM-86" value="+ id: int" style="text;strokeColor=none;fillColor=none;align=left;verticalAlign=top;spacingLeft=4;spacingRight=4;overflow=hidden;rotatable=0;points=[[0,0.5],[1,0.5]];portConstraint=eastwest;labelBackgroundColor=none;fontColor=#5C5C5C;sketch=1;curveFitting=1;jiggle=2;rounded=0;" parent="iK1w5hHDq547_emKRhoM-50" vertex="1">
          <mxGeometry y="32" width="208" height="32" as="geometry" />
        </mxCell>
        <mxCell id="iK1w5hHDq547_emKRhoM-84" value="+ dataHora = datetime" style="text;strokeColor=none;fillColor=none;align=left;verticalAlign=top;spacingLeft=4;spacingRight=4;overflow=hidden;rotatable=0;points=[[0,0.5],[1,0.5]];portConstraint=eastwest;labelBackgroundColor=none;fontColor=#5C5C5C;sketch=1;curveFitting=1;jiggle=2;rounded=0;" parent="iK1w5hHDq547_emKRhoM-50" vertex="1">
          <mxGeometry y="64" width="208" height="32" as="geometry" />
        </mxCell>
        <mxCell id="iK1w5hHDq547_emKRhoM-83" value="+ tipoDeEvento = boolean" style="text;strokeColor=none;fillColor=none;align=left;verticalAlign=top;spacingLeft=4;spacingRight=4;overflow=hidden;rotatable=0;points=[[0,0.5],[1,0.5]];portConstraint=eastwest;labelBackgroundColor=none;fontColor=#5C5C5C;sketch=1;curveFitting=1;jiggle=2;rounded=0;" parent="iK1w5hHDq547_emKRhoM-50" vertex="1">
          <mxGeometry y="96" width="208" height="32" as="geometry" />
        </mxCell>
        <mxCell id="iK1w5hHDq547_emKRhoM-87" value="+ gestor: Gestor " style="text;strokeColor=none;fillColor=none;align=left;verticalAlign=top;spacingLeft=4;spacingRight=4;overflow=hidden;rotatable=0;points=[[0,0.5],[1,0.5]];portConstraint=eastwest;labelBackgroundColor=none;fontColor=#5C5C5C;sketch=1;curveFitting=1;jiggle=2;rounded=0;" parent="iK1w5hHDq547_emKRhoM-50" vertex="1">
          <mxGeometry y="128" width="208" height="32" as="geometry" />
        </mxCell>
        <mxCell id="iK1w5hHDq547_emKRhoM-88" value="+ motorista: Motorista" style="text;strokeColor=none;fillColor=none;align=left;verticalAlign=top;spacingLeft=4;spacingRight=4;overflow=hidden;rotatable=0;points=[[0,0.5],[1,0.5]];portConstraint=eastwest;labelBackgroundColor=none;fontColor=#5C5C5C;sketch=1;curveFitting=1;jiggle=2;rounded=0;" parent="iK1w5hHDq547_emKRhoM-50" vertex="1">
          <mxGeometry y="160" width="208" height="32" as="geometry" />
        </mxCell>
        <mxCell id="iK1w5hHDq547_emKRhoM-89" value="+ carro: Carro" style="text;strokeColor=none;fillColor=none;align=left;verticalAlign=top;spacingLeft=4;spacingRight=4;overflow=hidden;rotatable=0;points=[[0,0.5],[1,0.5]];portConstraint=eastwest;labelBackgroundColor=none;fontColor=#5C5C5C;sketch=1;curveFitting=1;jiggle=2;rounded=0;" parent="iK1w5hHDq547_emKRhoM-50" vertex="1">
          <mxGeometry y="192" width="208" height="32" as="geometry" />
        </mxCell>
        <mxCell id="iK1w5hHDq547_emKRhoM-90" value="+ odometro: Carro(odometro)" style="text;strokeColor=none;fillColor=none;align=left;verticalAlign=top;spacingLeft=4;spacingRight=4;overflow=hidden;rotatable=0;points=[[0,0.5],[1,0.5]];portConstraint=eastwest;labelBackgroundColor=none;fontColor=#5C5C5C;sketch=1;curveFitting=1;jiggle=2;rounded=0;" parent="iK1w5hHDq547_emKRhoM-50" vertex="1">
          <mxGeometry y="224" width="208" height="32" as="geometry" />
        </mxCell>
        <mxCell id="iK1w5hHDq547_emKRhoM-91" value="+ telefone = Motorista(telefone)" style="text;strokeColor=none;fillColor=none;align=left;verticalAlign=top;spacingLeft=4;spacingRight=4;overflow=hidden;rotatable=0;points=[[0,0.5],[1,0.5]];portConstraint=eastwest;labelBackgroundColor=none;fontColor=#5C5C5C;sketch=1;curveFitting=1;jiggle=2;rounded=0;" parent="iK1w5hHDq547_emKRhoM-50" vertex="1">
          <mxGeometry y="256" width="208" height="32" as="geometry" />
        </mxCell>
        <mxCell id="iK1w5hHDq547_emKRhoM-55" style="line;strokeWidth=1;fillColor=none;align=left;verticalAlign=middle;spacingTop=-1;spacingLeft=3;spacingRight=3;rotatable=0;labelPosition=right;points=[];portConstraint=eastwest;strokeColor=#006658;labelBackgroundColor=none;fontColor=#5C5C5C;sketch=1;curveFitting=1;jiggle=2;rounded=0;" parent="iK1w5hHDq547_emKRhoM-50" vertex="1">
          <mxGeometry y="288" width="208" height="8" as="geometry" />
        </mxCell>
      </root>
    </mxGraphModel>
  </diagram>
</mxfile>
